<?xml version="1.0" encoding="UTF-8"?>
<svg xmlns="http://www.w3.org/2000/svg" width="31" height="31" viewBox="0 0 31 31" fill="none">
  <circle cx="15.5" cy="15.5" r="15.5" fill="#D9D9D9"></circle>
  <path d="M23.0663 12.3924C23.0545 11.7661 22.9363 11.1465 22.7168 10.5599C22.5223 10.0503 22.2198 9.58892 21.8301 9.20738C21.4404 8.82583 20.9727 8.53316 20.4592 8.3495C19.8726 8.12999 19.2529 8.0118 18.6267 8C17.8899 8 17.6065 8 15.9913 8H15.0467C13.422 8 13.1575 8 12.4018 8.04723C11.7751 8.04281 11.1523 8.14502 10.5599 8.3495C10.055 8.53889 9.59662 8.83413 9.21538 9.21538C8.83413 9.59662 8.53889 10.055 8.3495 10.5599C8.12999 11.1465 8.0118 11.7661 8 12.3924C8 13.1291 8 13.4125 8 15.0278V15.9724C8 17.5971 8 17.8616 8.04723 18.6172C8.05903 19.2435 8.17722 19.8631 8.39673 20.4498C8.58612 20.9546 8.88136 21.413 9.26261 21.7942C9.64385 22.1755 10.1023 22.4707 10.6071 22.6601C11.1754 22.8938 11.7788 23.0311 12.3924 23.0663C13.1291 23.0663 13.4125 23.1135 15.0372 23.1135H15.9818C17.5971 23.1135 17.871 23.1135 18.6172 23.0663C19.2435 23.0545 19.8631 22.9363 20.4498 22.7168C20.9546 22.5274 21.413 22.2321 21.7942 21.8509C22.1755 21.4697 22.4707 21.0112 22.6601 20.5064C22.9043 19.9084 23.0418 19.2722 23.0663 18.6267C23.0663 17.8899 23.1135 17.6065 23.1135 15.9818V15.0372C23.0663 13.4125 23.0663 13.1291 23.0663 12.3924ZM21.7061 18.5606C21.7044 19.041 21.618 19.5175 21.451 19.968C21.3243 20.2938 21.1312 20.5896 20.884 20.8368C20.6368 21.0839 20.341 21.277 20.0152 21.4038C19.5647 21.5708 19.0883 21.6571 18.6078 21.6588C18.0788 21.6588 17.786 21.6588 17.0681 21.6588V16.2652H18.655C18.8538 16.2652 19.0446 16.1869 19.1861 16.0472C19.3275 15.9075 19.4082 15.7177 19.4107 15.519C19.4132 15.4198 19.3958 15.3212 19.3593 15.229C19.3228 15.1368 19.2681 15.0529 19.1984 14.9823C19.1287 14.9118 19.0455 14.856 18.9538 14.8184C18.862 14.7807 18.7636 14.762 18.6645 14.7633H17.0303C17.0303 14.7633 17.0303 14.7066 17.0303 14.6877C17.0303 14.3288 17.0303 13.9604 17.0303 13.6014C17.0328 13.305 17.1523 13.0215 17.3629 12.8127C17.5734 12.6039 17.8579 12.4868 18.1544 12.4868H18.6739C18.8635 12.4724 19.0404 12.3862 19.1686 12.2457C19.2967 12.1053 19.3664 11.9212 19.3635 11.7311C19.361 11.539 19.2836 11.3554 19.1477 11.2195C19.0119 11.0837 18.8283 11.0063 18.6361 11.0038C18.2633 10.9784 17.8887 11.0007 17.5215 11.0699C17.0103 11.1888 16.546 11.457 16.1877 11.8405C15.8294 12.2241 15.5934 12.7055 15.5095 13.2236C15.4895 13.5382 15.4895 13.8537 15.5095 14.1682C15.5095 14.3382 15.5095 14.5649 15.5095 14.7538H14.7633C14.6653 14.7464 14.5668 14.7583 14.4734 14.789C14.38 14.8196 14.2936 14.8683 14.219 14.9323C14.0685 15.0617 13.9754 15.2455 13.9604 15.4434C13.9454 15.6413 14.0096 15.8371 14.1389 15.9877C14.2682 16.1382 14.452 16.2313 14.6499 16.2463C14.8953 16.2605 15.1413 16.2605 15.3867 16.2463H15.5095V21.6872C13.4881 21.6872 13.2519 21.6872 12.4585 21.6399C11.978 21.6383 11.5016 21.5519 11.051 21.3849C10.7253 21.2581 10.4294 21.065 10.1823 20.8179C9.93511 20.5707 9.74202 20.2749 9.61526 19.9491C9.44823 19.4986 9.3619 19.0222 9.36022 18.5417C9.36022 17.7482 9.31299 17.5121 9.31299 15.4906C9.31299 13.4692 9.31299 13.2331 9.36022 12.4396C9.3619 11.9591 9.44823 11.4827 9.61526 11.0321C9.7442 10.7099 9.93827 10.4177 10.1853 10.1739C10.4324 9.9301 10.7271 9.73992 11.051 9.61526C11.5016 9.44823 11.978 9.3619 12.4585 9.36022C13.2519 9.36022 13.4881 9.31299 15.5095 9.31299C17.531 9.31299 17.7671 9.31299 18.5606 9.36022C19.041 9.3619 19.5175 9.44823 19.968 9.61526C20.2938 9.74202 20.5896 9.93511 20.8368 10.1823C21.0839 10.4294 21.277 10.7253 21.4038 11.051C21.5708 11.5016 21.6571 11.978 21.6588 12.4585C21.6588 13.2519 21.7061 13.4881 21.7061 15.5095C21.7061 17.531 21.6966 17.7671 21.6588 18.5606H21.7061Z" fill="#162447"></path>
</svg>
