<?xml version="1.0" encoding="UTF-8"?>
<svg xmlns="http://www.w3.org/2000/svg" width="31" height="31" viewBox="0 0 31 31" fill="none">
  <circle cx="15.5" cy="15.5" r="15.5" fill="#D9D9D9"></circle>
  <path fill-rule="evenodd" clip-rule="evenodd" d="M9.35599 12.5256H12.1068V22.1126H9.35599V12.5256ZM10.6613 11.3264H10.6414C9.6456 11.3264 9 10.5935 9 9.66546C9 8.71842 9.66468 8 10.6804 8C11.6952 8 12.3193 8.71661 12.3392 9.66275C12.3392 10.5908 11.6952 11.3264 10.6613 11.3264ZM23.1135 22.1135H19.9942V17.1515C19.9942 15.8529 19.5063 14.9673 18.4333 14.9673C17.6127 14.9673 17.1563 15.5646 16.9438 16.1421C16.8642 16.3481 16.8766 16.6364 16.8766 16.9255V22.1135H13.7864C13.7864 22.1135 13.8262 13.3244 13.7864 12.5256H16.8766V14.0302C17.0592 13.3723 18.0467 12.4334 19.6225 12.4334C21.5775 12.4334 23.1135 13.8133 23.1135 16.7819V22.1135Z" fill="#162447"></path>
</svg>
