<?xml version="1.0" encoding="UTF-8"?>
<svg xmlns="http://www.w3.org/2000/svg" width="31" height="31" viewBox="0 0 31 31" fill="none">
  <circle cx="15.5" cy="15.5" r="15.5" fill="#D9D9D9"></circle>
  <path fill-rule="evenodd" clip-rule="evenodd" d="M22.1152 11.2133C22.7932 10.7765 23.3135 10.0839 23.5577 9.25885C22.9228 9.66431 22.2213 9.95753 21.4728 10.1163C20.8755 9.42872 20.0218 9 19.0771 9C17.2645 9 15.7957 10.5824 15.7957 12.5339C15.7957 12.8109 15.823 13.0809 15.8793 13.3387C13.1521 13.1911 10.7338 11.7856 9.11381 9.64611C8.83113 10.1699 8.6696 10.7765 8.6696 11.4237C8.6696 12.6491 9.24904 13.731 10.13 14.366C9.59183 14.3478 9.08564 14.1871 8.64237 13.9242V13.9676C8.64237 15.6805 9.77308 17.1092 11.2766 17.4328C11.0005 17.5157 10.7113 17.5571 10.4108 17.5571C10.1994 17.5571 9.99284 17.5359 9.79374 17.4944C10.2107 18.8979 11.4231 19.9211 12.86 19.9484C11.7359 20.8969 10.3206 21.4611 8.78324 21.4611C8.5184 21.4611 8.25638 21.4459 8 21.4125C9.45284 22.4146 11.178 23 13.0319 23C19.0705 23 22.3706 17.6148 22.3706 12.9444C22.3706 12.7907 22.3687 12.638 22.3622 12.4874C23.0036 11.9889 23.5614 11.366 24 10.6572C23.4112 10.9383 22.7782 11.1284 22.1152 11.2133Z" fill="#162447"></path>
</svg>
